<svg width="64" height="64" viewBox="0 0 64 64" fill="none" xmlns="http://www.w3.org/2000/svg">
<path fill-rule="evenodd" clip-rule="evenodd" d="M58.1792 31.6843L46.8536 22.3769L23.918 28.6988L18.861 42.5218L44.341 58.5813L58.1792 31.6843Z" fill="#FF944C"/>
<path opacity="0.25" fill-rule="evenodd" clip-rule="evenodd" d="M46.6218 34.5148L46.1108 26.1328L36.2812 28.8422L46.6218 34.5148Z" fill="white"/>
<path opacity="0.25" fill-rule="evenodd" clip-rule="evenodd" d="M30.2393 39.0304L26.4518 31.5515L36.2813 28.8422L30.2393 39.0304Z" fill="white"/>
<path opacity="0.5" fill-rule="evenodd" clip-rule="evenodd" d="M46.6218 34.5148L36.2813 28.8422L30.2393 39.0304L46.6218 34.5148Z" fill="white"/>
<path opacity="0.5" fill-rule="evenodd" clip-rule="evenodd" d="M53.8301 32.5279L46.1108 26.1328L46.6218 34.5148L53.8301 32.5279Z" fill="white"/>
<path opacity="0.35" fill-rule="evenodd" clip-rule="evenodd" d="M23.0309 41.0173L26.4518 31.5516L30.2393 39.0304L23.0309 41.0173Z" fill="#FA8537"/>
<path opacity="0.35" fill-rule="evenodd" clip-rule="evenodd" d="M53.8301 32.5279L46.6218 34.5148L43.0424 53.79L53.8301 32.5279Z" fill="#FA8537"/>
<path opacity="0.5" fill-rule="evenodd" clip-rule="evenodd" d="M23.0309 41.0173L30.2393 39.0304L43.0425 53.79L23.0309 41.0173Z" fill="white"/>
<path opacity="0.25" fill-rule="evenodd" clip-rule="evenodd" d="M46.6218 34.5148L30.2393 39.0304L43.0425 53.79L46.6218 34.5148Z" fill="white"/>
<path fill-rule="evenodd" clip-rule="evenodd" d="M50.555 4.15937L47.026 0.420004L38.7773 1.59601L36.4144 6.17539L44.5675 12.8919L50.555 4.15937Z" fill="#FFBE5D"/>
<path opacity="0.25" fill-rule="evenodd" clip-rule="evenodd" d="M46.414 4.62854L46.6034 1.6924L43.0682 2.1964L46.414 4.62854Z" fill="white"/>
<path opacity="0.25" fill-rule="evenodd" clip-rule="evenodd" d="M40.5221 5.46854L39.5331 2.7004L43.0682 2.1964L40.5221 5.46854Z" fill="white"/>
<path opacity="0.5" fill-rule="evenodd" clip-rule="evenodd" d="M46.414 4.62854L43.0683 2.1964L40.5221 5.46855L46.414 4.62854Z" fill="white"/>
<path opacity="0.5" fill-rule="evenodd" clip-rule="evenodd" d="M49.0064 4.25894L46.6034 1.6924L46.414 4.62854L49.0064 4.25894Z" fill="white"/>
<path opacity="0.35" fill-rule="evenodd" clip-rule="evenodd" d="M37.9296 5.83815L39.5331 2.70041L40.5221 5.46855L37.9296 5.83815Z" fill="#FFA624"/>
<path opacity="0.35" fill-rule="evenodd" clip-rule="evenodd" d="M49.0064 4.25893L46.414 4.62853L44.3259 11.1688L49.0064 4.25893Z" fill="#FFA624"/>
<path opacity="0.5" fill-rule="evenodd" clip-rule="evenodd" d="M37.9297 5.83815L40.5221 5.46855L44.326 11.1688L37.9297 5.83815Z" fill="white"/>
<path opacity="0.25" fill-rule="evenodd" clip-rule="evenodd" d="M46.414 4.62854L40.5221 5.46855L44.326 11.1688L46.414 4.62854Z" fill="white"/>
<path fill-rule="evenodd" clip-rule="evenodd" d="M27.2986 16.7775L24.6513 8.36623L11.1016 3.94533L4.07056 9.19883L11.614 25.6769L27.2986 16.7775Z" fill="#FF6165"/>
<path opacity="0.25" fill-rule="evenodd" clip-rule="evenodd" d="M20.5864 14.3719L23.0573 10.0026L17.2502 8.10789L20.5864 14.3719Z" fill="white"/>
<path opacity="0.25" fill-rule="evenodd" clip-rule="evenodd" d="M10.908 11.2141L11.4432 6.21322L17.2502 8.10789L10.908 11.2141Z" fill="white"/>
<path opacity="0.5" fill-rule="evenodd" clip-rule="evenodd" d="M20.5864 14.3719L17.2502 8.10789L10.9081 11.2141L20.5864 14.3719Z" fill="white"/>
<path opacity="0.5" fill-rule="evenodd" clip-rule="evenodd" d="M24.8449 15.7613L23.0573 10.0026L20.5864 14.3719L24.8449 15.7613Z" fill="white"/>
<path opacity="0.35" fill-rule="evenodd" clip-rule="evenodd" d="M6.64955 9.82464L11.4432 6.21321L10.908 11.2141L6.64955 9.82464Z" fill="#F23035"/>
<path opacity="0.35" fill-rule="evenodd" clip-rule="evenodd" d="M24.8449 15.7613L20.5864 14.3719L12.5221 22.8464L24.8449 15.7613Z" fill="#F23035"/>
<path opacity="0.5" fill-rule="evenodd" clip-rule="evenodd" d="M6.64959 9.82464L10.9081 11.2141L12.5221 22.8463L6.64959 9.82464Z" fill="white"/>
<path opacity="0.25" fill-rule="evenodd" clip-rule="evenodd" d="M20.5864 14.3719L10.9081 11.2141L12.5221 22.8463L20.5864 14.3719Z" fill="white"/>
</svg>
