<svg width="64" height="64" viewBox="0 0 64 64" fill="none" xmlns="http://www.w3.org/2000/svg">
<path fill-rule="evenodd" clip-rule="evenodd" d="M5.82083 31.6843L17.1464 22.3769L40.082 28.6988L45.139 42.5218L19.659 58.5813L5.82083 31.6843Z" fill="#24CC8F"/>
<path opacity="0.25" fill-rule="evenodd" clip-rule="evenodd" d="M17.3782 34.5148L17.8892 26.1328L27.7188 28.8422L17.3782 34.5148Z" fill="white"/>
<path opacity="0.25" fill-rule="evenodd" clip-rule="evenodd" d="M33.7607 39.0304L37.5482 31.5515L27.7187 28.8422L33.7607 39.0304Z" fill="white"/>
<path opacity="0.5" fill-rule="evenodd" clip-rule="evenodd" d="M17.3782 34.5148L27.7187 28.8422L33.7607 39.0304L17.3782 34.5148Z" fill="white"/>
<path opacity="0.5" fill-rule="evenodd" clip-rule="evenodd" d="M10.1699 32.5279L17.8892 26.1328L17.3782 34.5148L10.1699 32.5279Z" fill="white"/>
<path opacity="0.35" fill-rule="evenodd" clip-rule="evenodd" d="M40.9691 41.0173L37.5482 31.5516L33.7607 39.0304L40.9691 41.0173Z" fill="#1CA372"/>
<path opacity="0.35" fill-rule="evenodd" clip-rule="evenodd" d="M10.1699 32.5279L17.3782 34.5148L20.9576 53.79L10.1699 32.5279Z" fill="#1CA372"/>
<path opacity="0.5" fill-rule="evenodd" clip-rule="evenodd" d="M40.9691 41.0173L33.7607 39.0304L20.9575 53.79L40.9691 41.0173Z" fill="white"/>
<path opacity="0.25" fill-rule="evenodd" clip-rule="evenodd" d="M17.3782 34.5148L33.7607 39.0304L20.9575 53.79L17.3782 34.5148Z" fill="white"/>
<path fill-rule="evenodd" clip-rule="evenodd" d="M13.445 4.15937L16.974 0.420004L25.2227 1.59601L27.5856 6.17539L19.4325 12.8919L13.445 4.15937Z" fill="#925CF3"/>
<path opacity="0.25" fill-rule="evenodd" clip-rule="evenodd" d="M17.586 4.62854L17.3966 1.6924L20.9318 2.1964L17.586 4.62854Z" fill="white"/>
<path opacity="0.25" fill-rule="evenodd" clip-rule="evenodd" d="M23.4779 5.46854L24.4669 2.7004L20.9318 2.1964L23.4779 5.46854Z" fill="white"/>
<path opacity="0.5" fill-rule="evenodd" clip-rule="evenodd" d="M17.586 4.62854L20.9317 2.1964L23.4779 5.46855L17.586 4.62854Z" fill="white"/>
<path opacity="0.5" fill-rule="evenodd" clip-rule="evenodd" d="M14.9936 4.25894L17.3966 1.6924L17.586 4.62854L14.9936 4.25894Z" fill="white"/>
<path opacity="0.35" fill-rule="evenodd" clip-rule="evenodd" d="M26.0704 5.83815L24.4669 2.70041L23.4779 5.46855L26.0704 5.83815Z" fill="#4F2A93"/>
<path opacity="0.35" fill-rule="evenodd" clip-rule="evenodd" d="M14.9936 4.25893L17.586 4.62853L19.6741 11.1688L14.9936 4.25893Z" fill="#4F2A93"/>
<path opacity="0.5" fill-rule="evenodd" clip-rule="evenodd" d="M26.0703 5.83815L23.4779 5.46855L19.674 11.1688L26.0703 5.83815Z" fill="white"/>
<path opacity="0.25" fill-rule="evenodd" clip-rule="evenodd" d="M17.586 4.62854L23.4779 5.46855L19.674 11.1688L17.586 4.62854Z" fill="white"/>
<path fill-rule="evenodd" clip-rule="evenodd" d="M36.7014 16.7775L39.3487 8.36623L52.8984 3.94533L59.9294 9.19883L52.386 25.6769L36.7014 16.7775Z" fill="#50B5E9"/>
<path opacity="0.25" fill-rule="evenodd" clip-rule="evenodd" d="M43.4136 14.3719L40.9427 10.0026L46.7498 8.10789L43.4136 14.3719Z" fill="white"/>
<path opacity="0.25" fill-rule="evenodd" clip-rule="evenodd" d="M53.092 11.2141L52.5568 6.21322L46.7498 8.10789L53.092 11.2141Z" fill="white"/>
<path opacity="0.5" fill-rule="evenodd" clip-rule="evenodd" d="M43.4136 14.3719L46.7498 8.10789L53.0919 11.2141L43.4136 14.3719Z" fill="white"/>
<path opacity="0.5" fill-rule="evenodd" clip-rule="evenodd" d="M39.1551 15.7613L40.9427 10.0026L43.4136 14.3719L39.1551 15.7613Z" fill="white"/>
<path opacity="0.35" fill-rule="evenodd" clip-rule="evenodd" d="M57.3504 9.82464L52.5568 6.21321L53.092 11.2141L57.3504 9.82464Z" fill="#46A7D9"/>
<path opacity="0.35" fill-rule="evenodd" clip-rule="evenodd" d="M39.1551 15.7613L43.4136 14.3719L51.4779 22.8464L39.1551 15.7613Z" fill="#46A7D9"/>
<path opacity="0.5" fill-rule="evenodd" clip-rule="evenodd" d="M57.3504 9.82464L53.0919 11.2141L51.4779 22.8463L57.3504 9.82464Z" fill="white"/>
<path opacity="0.25" fill-rule="evenodd" clip-rule="evenodd" d="M43.4136 14.3719L53.0919 11.2141L51.4779 22.8463L43.4136 14.3719Z" fill="white"/>
</svg>
