<svg width="145" height="32" viewBox="0 0 145 32" fill="none" xmlns="http://www.w3.org/2000/svg">
<path d="M72.7484 0.0131836C71.1152 0.0131836 69.7861 1.33328 69.7861 2.96139C69.7861 4.5895 71.1152 5.90959 72.7484 5.90959C74.3816 5.90959 75.7106 4.58461 75.7106 2.96139C75.7106 1.33816 74.3816 0.0131836 72.7484 0.0131836Z" fill="#FF6165"/>
<path d="M99.3498 0.0131836C97.7166 0.0131836 96.3875 1.33328 96.3875 2.96139C96.3875 4.5895 97.7166 5.90959 99.3498 5.90959C100.983 5.90959 102.312 4.58461 102.312 2.96139C102.312 1.33816 100.983 0.0131836 99.3498 0.0131836Z" fill="#50B5E9"/>
<path d="M123.181 28.1326C121.263 30.5919 118.37 32 115.236 32C109.91 32 105.511 27.8784 105.221 22.6176C105.207 22.3536 105.207 19.2244 105.207 19.1951C105.207 13.7192 109.704 9.26509 115.236 9.26509C117.973 9.26509 120.626 10.3945 122.509 12.36C123.083 12.9565 123.392 13.7436 123.367 14.5699C123.348 15.3962 122.999 16.1638 122.391 16.7309C121.146 17.9044 119.169 17.8506 117.982 16.6185C117.256 15.8655 116.281 15.45 115.231 15.45C113.142 15.45 111.445 17.127 111.445 19.1902C111.445 19.5129 111.445 21.9966 111.455 22.3389C111.572 24.2701 113.235 25.8102 115.231 25.8102C116.418 25.8102 117.511 25.2773 118.232 24.3484C119.282 22.9989 121.249 22.7496 122.607 23.791C123.269 24.2946 123.691 25.0231 123.799 25.8445C123.907 26.6659 123.681 27.4775 123.176 28.1326H123.181ZM144.995 12.316V28.9442C144.995 30.6261 143.627 31.9951 141.945 31.9951C141.047 31.9951 140.213 31.5991 139.645 30.9439C138.286 31.6333 136.785 31.9951 135.26 31.9951C130.091 31.9951 125.819 27.9419 125.54 22.7642C125.525 22.5051 125.525 19.4347 125.525 19.4005C125.525 14.0174 129.895 9.64156 135.26 9.64156C136.702 9.64156 138.124 9.96914 139.434 10.595C139.988 9.77846 140.92 9.2602 141.95 9.2602C143.632 9.2602 145 10.6292 145 12.3111L144.995 12.316ZM138.889 22.4807C138.894 22.0798 138.899 19.7183 138.899 19.4053C138.899 17.3861 137.266 15.7482 135.26 15.7482C133.254 15.7482 131.621 17.391 131.621 19.4053C131.621 19.7134 131.621 22.1629 131.631 22.5051C131.744 24.3875 133.343 25.8934 135.26 25.8934C137.178 25.8934 138.767 24.3972 138.889 22.4807ZM42.3338 12.316V28.9442C42.3338 30.6261 40.9655 31.9951 39.2833 31.9951C38.3858 31.9951 37.5521 31.5991 36.9832 30.9439C35.6247 31.6333 34.124 31.9951 32.5988 31.9951C27.4247 31.9951 23.158 27.9419 22.8785 22.7642C22.8638 22.5345 22.8638 20.1338 22.8638 19.4005C22.8638 14.0174 27.2335 9.64156 32.5988 9.64156C34.0406 9.64156 35.4678 9.96914 36.7723 10.595C37.3265 9.77846 38.2583 9.2602 39.2882 9.2602C40.9704 9.2602 42.3387 10.6292 42.3387 12.3111L42.3338 12.316ZM32.5988 15.7482C30.5929 15.7482 28.9598 17.391 28.9598 19.4053C28.9598 19.7231 28.9598 22.158 28.9696 22.5002C29.0824 24.3875 30.6812 25.8934 32.5988 25.8934C34.5163 25.8934 36.1053 24.3972 36.2279 22.4807C36.2328 22.0798 36.2377 19.7231 36.2377 19.4053C36.2377 17.3861 34.6046 15.7482 32.5988 15.7482ZM72.7452 9.42643C71.1121 9.42643 69.783 10.7954 69.783 12.4773V28.9442C69.783 30.6261 71.1121 31.9951 72.7452 31.9951C74.3783 31.9951 75.7074 30.6261 75.7074 28.9442V12.4773C75.7074 10.7954 74.3783 9.42643 72.7452 9.42643ZM99.346 9.42643C97.7129 9.42643 96.3838 10.7954 96.3838 12.4773V28.9442C96.3838 30.6261 97.7129 31.9951 99.346 31.9951C100.979 31.9951 102.308 30.6261 102.308 28.9442V12.4773C102.308 10.7954 100.979 9.42643 99.346 9.42643ZM66.041 19.244C66.041 19.2733 66.0411 22.3878 66.0264 22.6469C65.7468 27.893 61.4752 32 56.3061 32C54.7808 32 53.2801 31.6333 51.9216 30.9342C51.3527 31.5991 50.519 32 49.6166 32C47.9344 32 46.5662 30.6164 46.5662 28.9198V3.08021C46.5662 1.38365 47.9344 0 49.6166 0C51.2988 0 52.6671 1.38365 52.6671 3.08021V10.0816C53.8245 9.60734 55.0604 9.35798 56.3061 9.35798C61.6762 9.35798 66.041 13.7925 66.041 19.244ZM56.3061 15.5233C54.3002 15.5233 52.6671 17.1905 52.6671 19.244C52.6671 19.5667 52.6671 22.0358 52.6769 22.3829C52.7946 24.3044 54.3885 25.8347 56.3061 25.8347C58.2236 25.8347 59.8077 24.3141 59.9352 22.3682C59.9352 21.9526 59.945 19.552 59.945 19.244C59.945 17.1905 58.3119 15.5233 56.3061 15.5233ZM9.62221 9.35798C8.43537 9.35798 7.26325 9.57311 6.15978 9.98381V3.0851C6.15978 1.38854 4.77677 0.00488934 3.07989 0.00488934C1.38301 0.00488934 0 1.38854 0 3.0851V28.9198C0 30.6212 1.38301 32 3.07989 32C4.77677 32 6.15978 30.6164 6.15978 28.9198V17.6941C6.28729 17.5572 7.4349 15.5233 9.62221 15.5233C11.6624 15.5233 13.32 17.1905 13.32 19.244C13.32 19.6547 13.32 28.3526 13.3102 28.8416C13.2661 30.5235 14.551 31.912 16.2185 31.9951C16.2773 31.9951 16.3313 31.9951 16.3901 31.9951C18.0281 31.9951 19.3768 30.7092 19.4602 29.0714C19.4749 28.8171 19.4749 19.3369 19.4749 19.244C19.4749 13.7925 15.0561 9.35798 9.62221 9.35798ZM91.2147 9.35798H89.41V3.08021C89.41 1.38365 88.0122 0 86.2908 0C84.5694 0 83.1717 1.38365 83.1717 3.08021V9.35798H81.3669C79.6504 9.35798 78.2478 10.7416 78.2478 12.4431C78.2478 14.1445 79.6455 15.5233 81.3669 15.5233H83.1717V28.9198C83.1717 30.6212 84.5694 32 86.2908 32C88.0122 32 89.41 30.6164 89.41 28.9198V15.5233H91.2147C92.9361 15.5233 94.3339 14.1396 94.3339 12.4431C94.3339 10.7465 92.9361 9.35798 91.2147 9.35798Z" fill="white"/>
</svg>
